Coordinates
version=1
nRows=16
nColumns=38
inDegrees=no

Units are S.I. units (second, meters, Newtons, ...)
If the header above contains a line with 'inDegrees', this indicates whether rotational values are in degrees (yes) or radians (no).

endheader
time	pelvis_tilt	pelvis_list	pelvis_rotation	pelvis_tx	pelvis_ty	pelvis_tz	hip_flexion_r	hip_adduction_r	hip_rotation_r	knee_angle_r	ankle_angle_r	subtalar_angle_r	mtp_angle_r	hip_flexion_l	hip_adduction_l	hip_rotation_l	knee_angle_l	ankle_angle_l	subtalar_angle_l	mtp_angle_l	lumbar_extension	lumbar_bending	lumbar_rotation	arm_flex_r	arm_add_r	arm_rot_r	elbow_flex_r	pro_sup_r	wrist_flex_r	wrist_dev_r	arm_flex_l	arm_add_l	arm_rot_l	elbow_flex_l	pro_sup_l	wrist_flex_l	wrist_dev_l
0.658333	-0.012152	0.0834734	0.123243	0.90057	0.996385	-0.637998	0.763986	-0.141043	-0.173216	-2.05848	0.0177284	0.0777062	0.000156421	0.0701235	0.139305	0.0323459	-0.798209	0.502474	0.0199807	0.000309144	-0.388428	-0.0797867	-0.329161	-0.601424	-0.292561	-0.0305405	1.80019	2.13615	0.00322805	-0.0158239	0.120346	-0.449982	0.139783	2.17737	1.83998	0.0600457	-0.00212831
0.666667	-0.0190924	0.0575772	0.126492	0.903345	1.00018	-0.638753	0.809503	-0.125013	-0.189855	-1.98907	0.0290821	0.0777062	0.000156421	0.00727003	0.103575	0.0332653	-0.736083	0.446915	0.0199807	0.000309144	-0.367727	-0.0462086	-0.335223	-0.65095	-0.292078	-0.056099	1.82586	2.14749	0.00322805	-0.0158239	0.114559	-0.432806	0.128395	2.21722	1.84417	0.0600457	-0.00212831
0.675	-0.0254602	0.031316	0.127442	0.906697	1.00436	-0.639353	0.847164	-0.108662	-0.209043	-1.91074	0.0400073	0.0777062	0.000156421	-0.0574906	0.0673263	0.0263411	-0.666728	0.37319	0.0199807	0.000309144	-0.346847	-0.0129915	-0.338145	-0.700207	-0.289091	-0.0857546	1.85088	2.16015	0.00322805	-0.0158239	0.107117	-0.41484	0.120401	2.25532	1.84697	0.0600457	-0.00212831
0.683333	-0.0315754	0.00566803	0.125698	0.91047	1.00876	-0.639746	0.877497	-0.0916858	-0.228467	-1.82392	0.0499109	0.0777062	0.000156421	-0.122569	0.0323034	0.0110524	-0.592574	0.283329	0.0199807	0.000309144	-0.326016	0.0187707	-0.338199	-0.747845	-0.283986	-0.118274	1.87427	2.1712	0.00322805	-0.0158239	0.0983067	-0.396497	0.115822	2.2911	1.84791	0.0600457	-0.00212831
0.691667	-0.0377671	-0.018314	0.121147	0.914475	1.01323	-0.639886	0.901004	-0.0739157	-0.245816	-1.72878	0.0582872	0.0777062	0.000156421	-0.18615	0.000322609	-0.0121405	-0.516996	0.181229	0.0199807	0.000309144	-0.305448	0.0479738	-0.335918	-0.792539	-0.277401	-0.152228	1.89543	2.17839	0.00322805	-0.0158239	0.0881971	-0.378222	0.114293	2.32423	1.84669	0.0600457	-0.00212831
0.7	-0.044241	-0.0394778	0.113963	0.918528	1.01763	-0.639756	0.918009	-0.0554993	-0.259046	-1.62537	0.064792	0.0777062	0.000156421	-0.246406	-0.0268892	-0.0417383	-0.444074	0.0725883	0.0199807	0.000309144	-0.28539	0.0735427	-0.332041	-0.833057	-0.270119	-0.186166	1.91412	2.18055	0.00322805	-0.0158239	0.0767401	-0.360484	0.115212	2.35449	1.84324	0.0600457	-0.00212831
0.708333	-0.051017	-0.0566935	0.104581	0.922473	1.02184	-0.639385	0.928617	-0.036999	-0.26665	-1.51381	0.0692656	0.0777062	0.000156421	-0.301704	-0.0478744	-0.075368	-0.378208	-0.0355417	0.0199807	0.000309144	-0.26616	0.0944796	-0.32741	-0.868332	-0.262957	-0.218767	1.93027	2.17761	0.00322805	-0.0158239	0.0638679	-0.343744	0.117882	2.38169	1.83764	0.0600457	-0.00212831
0.716667	-0.0579299	-0.0690011	0.0936333	0.926187	1.02575	-0.63885	0.932769	-0.019346	-0.267881	-1.3945	0.0717173	0.0777062	0.000156421	-0.350763	-0.0616501	-0.110157	-0.323674	-0.135618	0.0199807	0.000309144	-0.248136	0.109973	-0.322829	-0.897526	-0.256662	-0.248939	1.94395	2.17042	0.00322805	-0.0158239	0.04957	-0.328425	0.12164	2.40561	1.83017	0.0600457	-0.00212831
0.725	-0.0646609	-0.0757788	0.0818473	0.929584	1.02929	-0.63825	0.930368	-0.00366305	-0.262882	-1.26842	0.0722852	0.0777062	0.000156421	-0.392715	-0.0678809	-0.14324	-0.28424	-0.220748	0.0199807	0.000309144	-0.231732	0.119533	-0.318928	-0.920066	-0.251831	-0.275878	1.95524	2.16045	0.00322805	-0.0158239	0.0339341	-0.314877	0.125932	2.42593	1.8213	0.0600457	-0.00212831
0.733333	-0.0707901	-0.0768869	0.0699343	0.932626	1.03238	-0.637687	0.921442	0.00899034	-0.252661	-1.13731	0.0711854	0.0777062	0.000156421	-0.427079	-0.066966	-0.17227	-0.262888	-0.285849	0.0199807	0.000309144	-0.217365	0.123112	-0.316051	-0.935658	-0.248872	-0.299078	1.96423	2.14944	0.00322805	-0.0158239	0.0171518	-0.30334	0.130341	2.4423	1.81165	0.0600457	-0.00212831
0.741667	-0.0758353	-0.0727373	0.0584724	0.935323	1.03501	-0.637232	0.906273	0.0178771	-0.238902	-1.00382	0.0686605	0.0777062	0.000156421	-0.453697	-0.0600098	-0.195793	-0.261658	-0.328489	0.0199807	0.000309144	-0.205445	0.121167	-0.314193	-0.944253	-0.248	-0.318312	1.97099	2.13912	0.00322805	-0.0158239	-0.000503187	-0.293918	0.134584	2.45432	1.80199	0.0600457	-0.00212831
0.75	-0.0793021	-0.0642453	0.0478264	0.937711	1.03715	-0.636923	0.885468	0.0227911	-0.223652	-0.87148	0.0649357	0.0777062	0.000156421	-0.472672	-0.0486797	-0.2134	-0.281579	-0.34916	0.0199807	0.000309144	-0.196379	0.114661	-0.31299	-0.946003	-0.249274	-0.333586	1.97555	2.13091	0.00322805	-0.0158239	-0.0187096	-0.286567	0.138493	2.46164	1.79316	0.0600457	-0.00212831
0.758333	-0.0807647	-0.0527821	0.0381099	0.939817	1.03877	-0.636749	0.859935	0.0241286	-0.208952	-0.744505	0.0601891	0.0777062	0.000156421	-0.484339	-0.0349642	-0.225644	-0.322672	-0.350896	0.0199807	0.000309144	-0.190576	0.104948	-0.311778	-0.941215	-0.252658	-0.345086	1.97794	2.12577	0.00322805	-0.0158239	-0.0371371	-0.281099	0.141993	2.46397	1.78582	0.0600457	-0.00212831
0.766667	-0.0798921	-0.0399844	0.0292001	0.941662	1.03989	-0.636655	0.83082	0.0228388	-0.196505	-0.627408	0.054536	0.0777062	0.000156421	-0.489219	-0.0209325	-0.233762	-0.38399	-0.338399	0.0199807	0.000309144	-0.188398	0.0936325	-0.309702	-0.930317	-0.25808	-0.353121	1.97824	2.12421	0.00322805	-0.0158239	-0.0554839	-0.277218	0.145076	2.46119	1.78044	0.0600457	-0.00212831
0.775	-0.0765001	-0.0275524	0.0208084	0.943248	1.04053	-0.636561	0.799382	0.0202632	-0.187438	-0.524495	0.048021	0.0777062	0.000156421	-0.487991	-0.00851197	-0.239344	-0.463714	-0.317005	0.0199807	0.000309144	-0.190095	0.0823792	-0.30587	-0.913817	-0.265483	-0.358061	1.97657	2.12623	0.00322805	-0.0158239	-0.0735096	-0.274558	0.147769	2.45336	1.77712	0.0600457	-0.00212831
0.783333	-0.070583	-0.017053	0.0125742	0.944557	1.0407	-0.636383	0.766851	0.0179209	-0.182154	-0.439339	0.04062	0.0777062	0.000156421	-0.481458	0.000674598	-0.244031	-0.559296	-0.291748	0.0199807	0.000309144	-0.195754	0.07272	-0.299492	-0.892276	-0.274847	-0.36028	1.97314	2.13143	0.00322805	-0.0158239	-0.0910554	-0.272751	0.150101	2.4407	1.77568	0.0600457	-0.00212831
